<?xml version="1.0" encoding="UTF-8"?> <svg xmlns="http://www.w3.org/2000/svg" xmlns:xlink="http://www.w3.org/1999/xlink" width="480" zoomAndPan="magnify" viewBox="0 0 360 149.999998" height="200" preserveAspectRatio="xMidYMid meet" version="1.0"><defs><g></g><clipPath id="04cd9e487e"><path d="M 11 26.3125 L 98.710938 26.3125 L 98.710938 123.8125 L 11 123.8125 Z M 11 26.3125 " clip-rule="nonzero"></path></clipPath></defs><path fill="#f7931e" d="M 23.289062 77.6875 C 23.289062 71.316406 28.46875 66.148438 34.863281 66.148438 C 41.253906 66.148438 46.433594 71.316406 46.433594 77.6875 C 46.433594 84.0625 41.253906 89.226562 34.863281 89.226562 C 28.46875 89.226562 23.289062 84.0625 23.289062 77.6875 " fill-opacity="1" fill-rule="nonzero"></path><g clip-path="url(#04cd9e487e)"><path fill="#000000" d="M 29.273438 56.214844 C 29.273438 46.78125 36.972656 39.101562 46.433594 39.101562 C 55.894531 39.101562 63.59375 46.78125 63.59375 56.214844 C 63.59375 56.691406 63.570312 57.160156 63.53125 57.625 C 58.457031 54.824219 52.628906 53.222656 46.433594 53.222656 C 40.238281 53.222656 34.40625 54.824219 29.335938 57.625 C 29.296875 57.160156 29.273438 56.691406 29.273438 56.214844 Z M 11.042969 88.449219 C 11.007812 107.894531 27.386719 123.804688 46.886719 123.804688 L 95.648438 123.804688 C 97.304688 123.804688 98.648438 122.464844 98.648438 120.8125 C 98.648438 119.160156 97.304688 117.820312 95.648438 117.820312 L 46.839844 117.820312 C 30.589844 117.820312 17.109375 104.84375 17.042969 88.640625 C 17.003906 79.824219 20.894531 71.90625 27.058594 66.503906 C 28.273438 65.4375 29.578125 64.46875 30.960938 63.609375 C 35.457031 60.820312 40.757812 59.203125 46.433594 59.203125 C 52.109375 59.203125 57.410156 60.820312 61.90625 63.609375 C 63.289062 64.46875 64.59375 65.4375 65.808594 66.503906 C 71.945312 71.882812 75.828125 79.761719 75.824219 88.53125 C 74.714844 86.859375 73.183594 85.550781 71.292969 84.832031 C 65.570312 82.648438 58.734375 86.59375 56.03125 93.648438 C 53.324219 100.703125 55.769531 108.191406 61.492188 110.371094 C 62.730469 110.84375 64.019531 111.027344 65.304688 110.957031 C 63.132812 112.777344 60.691406 114.292969 58.054688 115.429688 L 69.292969 115.429688 C 76.953125 108.953125 81.824219 99.289062 81.824219 88.511719 C 81.824219 77.125 76.382812 66.980469 67.964844 60.527344 C 68.242188 59.132812 68.390625 57.6875 68.390625 56.214844 C 68.390625 51.777344 67.058594 47.648438 64.777344 44.195312 C 67.988281 35.984375 67.226562 26.308594 67.226562 26.308594 C 60.511719 28.863281 55.394531 32.984375 52.875 35.28125 C 50.839844 34.65625 48.675781 34.320312 46.433594 34.320312 C 44.191406 34.320312 42.027344 34.65625 39.992188 35.28125 C 37.472656 32.984375 32.355469 28.863281 25.640625 26.308594 C 25.640625 26.308594 24.878906 35.984375 28.09375 44.195312 C 25.808594 47.648438 24.476562 51.777344 24.476562 56.214844 C 24.476562 57.6875 24.625 59.132812 24.90625 60.527344 C 16.5 66.96875 11.066406 77.085938 11.042969 88.449219 " fill-opacity="1" fill-rule="nonzero"></path></g><g fill="#000000" fill-opacity="1"><g transform="translate(101.703777, 75.911139)"><g><path d="M 21.203125 0 L 16.546875 0 L 7.015625 -12.765625 L 7.015625 0 L 2.078125 0 L 2.078125 -20.734375 L 6.71875 -20.734375 L 16.28125 -7.9375 L 16.28125 -20.734375 L 21.203125 -20.734375 Z M 21.203125 0 "></path></g></g></g><g fill="#000000" fill-opacity="1"><g transform="translate(127.602802, 75.911139)"><g><path d="M 18.296875 -16.578125 L 7.34375 -16.578125 L 7.34375 -12.46875 L 17.234375 -12.46875 L 17.234375 -8.3125 L 7.34375 -8.3125 L 7.34375 -4.140625 L 18.625 -4.140625 L 18.625 0 L 2.078125 0 L 2.078125 -20.734375 L 18.296875 -20.734375 Z M 18.296875 -16.578125 "></path></g></g></g><g fill="#000000" fill-opacity="1"><g transform="translate(150.186923, 75.911139)"><g><path d="M 17.90625 -16.5 L 11.671875 -16.5 L 11.671875 0 L 6.390625 0 L 6.390625 -16.5 L 0.203125 -16.5 L 0.203125 -20.75 L 17.90625 -20.75 Z M 17.90625 -16.5 "></path></g></g></g><g fill="#000000" fill-opacity="1"><g transform="translate(170.906412, 75.911139)"><g><path d="M 24.84375 0 L 20.1875 0 L 20.15625 -13.46875 L 15.1875 -2.078125 L 11.75 -2.078125 L 6.78125 -13.46875 L 6.78125 0 L 2.078125 0 L 2.078125 -20.75 L 7.84375 -20.75 L 13.46875 -8.40625 L 19.09375 -20.75 L 24.84375 -20.75 Z M 24.84375 0 "></path></g></g></g><g fill="#000000" fill-opacity="1"><g transform="translate(200.475512, 75.911139)"><g><path d="M 7.34375 0 L 2.078125 0 L 2.078125 -20.734375 L 7.34375 -20.734375 Z M 7.34375 0 "></path></g></g></g><g fill="#000000" fill-opacity="1"><g transform="translate(212.522964, 75.911139)"><g><path d="M 15.578125 0 L 10.09375 -8.140625 L 7.34375 -5.09375 L 7.34375 0 L 2.078125 0 L 2.078125 -20.734375 L 7.34375 -20.734375 L 7.34375 -11.75 L 15.28125 -20.734375 L 21.375 -20.734375 L 13.671875 -12.140625 L 21.875 0 Z M 15.578125 0 "></path></g></g></g><g fill="#000000" fill-opacity="1"><g transform="translate(237.267698, 75.911139)"><g><path d="M 11.90625 -20.90625 C 15.125 -20.90625 17.796875 -19.898438 19.921875 -17.890625 C 22.054688 -15.890625 23.125 -13.390625 23.125 -10.390625 C 23.125 -7.367188 22.050781 -4.84375 19.90625 -2.8125 C 17.769531 -0.78125 15.101562 0.234375 11.90625 0.234375 C 8.707031 0.234375 6.039062 -0.773438 3.90625 -2.796875 C 1.769531 -4.816406 0.703125 -7.347656 0.703125 -10.390625 C 0.703125 -13.410156 1.769531 -15.914062 3.90625 -17.90625 C 6.039062 -19.90625 8.707031 -20.90625 11.90625 -20.90625 Z M 11.96875 -16.5 C 10.34375 -16.5 8.957031 -15.910156 7.8125 -14.734375 C 6.664062 -13.554688 6.09375 -12.097656 6.09375 -10.359375 C 6.09375 -8.617188 6.671875 -7.148438 7.828125 -5.953125 C 8.984375 -4.765625 10.359375 -4.171875 11.953125 -4.171875 C 13.554688 -4.171875 14.914062 -4.765625 16.03125 -5.953125 C 17.144531 -7.148438 17.703125 -8.617188 17.703125 -10.359375 C 17.703125 -12.097656 17.144531 -13.554688 16.03125 -14.734375 C 14.914062 -15.910156 13.5625 -16.5 11.96875 -16.5 Z M 11.96875 -16.5 "></path></g></g></g><g fill="#000000" fill-opacity="1"><g transform="translate(263.72907, 75.911139)"><g><path d="M 1.796875 -4.015625 C 2.253906 -4.472656 2.847656 -4.703125 3.578125 -4.703125 C 4.304688 -4.703125 4.898438 -4.472656 5.359375 -4.015625 C 5.828125 -3.566406 6.0625 -2.976562 6.0625 -2.25 C 6.0625 -1.519531 5.828125 -0.921875 5.359375 -0.453125 C 4.898438 0.00390625 4.304688 0.234375 3.578125 0.234375 C 2.847656 0.234375 2.253906 0.00390625 1.796875 -0.453125 C 1.347656 -0.921875 1.125 -1.519531 1.125 -2.25 C 1.125 -2.976562 1.347656 -3.566406 1.796875 -4.015625 Z M 1.796875 -4.015625 "></path></g></g></g><g fill="#000000" fill-opacity="1"><g transform="translate(273.556701, 75.911139)"><g><path d="M 11.78125 -20.90625 C 13.320312 -20.90625 14.835938 -20.585938 16.328125 -19.953125 C 17.816406 -19.328125 19.085938 -18.476562 20.140625 -17.40625 L 17.078125 -13.796875 C 16.410156 -14.628906 15.609375 -15.285156 14.671875 -15.765625 C 13.734375 -16.253906 12.800781 -16.5 11.875 -16.5 C 10.238281 -16.5 8.863281 -15.921875 7.75 -14.765625 C 6.644531 -13.609375 6.09375 -12.179688 6.09375 -10.484375 C 6.09375 -8.742188 6.644531 -7.289062 7.75 -6.125 C 8.863281 -4.957031 10.238281 -4.375 11.875 -4.375 C 12.738281 -4.375 13.640625 -4.59375 14.578125 -5.03125 C 15.515625 -5.46875 16.347656 -6.0625 17.078125 -6.8125 L 20.15625 -3.546875 C 19.03125 -2.398438 17.703125 -1.484375 16.171875 -0.796875 C 14.648438 -0.109375 13.128906 0.234375 11.609375 0.234375 C 8.484375 0.234375 5.882812 -0.78125 3.8125 -2.8125 C 1.738281 -4.84375 0.703125 -7.378906 0.703125 -10.421875 C 0.703125 -13.398438 1.757812 -15.890625 3.875 -17.890625 C 5.988281 -19.898438 8.625 -20.90625 11.78125 -20.90625 Z M 11.78125 -20.90625 "></path></g></g></g><g fill="#000000" fill-opacity="1"><g transform="translate(296.673568, 75.911139)"><g><path d="M 11.90625 -20.90625 C 15.125 -20.90625 17.796875 -19.898438 19.921875 -17.890625 C 22.054688 -15.890625 23.125 -13.390625 23.125 -10.390625 C 23.125 -7.367188 22.050781 -4.84375 19.90625 -2.8125 C 17.769531 -0.78125 15.101562 0.234375 11.90625 0.234375 C 8.707031 0.234375 6.039062 -0.773438 3.90625 -2.796875 C 1.769531 -4.816406 0.703125 -7.347656 0.703125 -10.390625 C 0.703125 -13.410156 1.769531 -15.914062 3.90625 -17.90625 C 6.039062 -19.90625 8.707031 -20.90625 11.90625 -20.90625 Z M 11.96875 -16.5 C 10.34375 -16.5 8.957031 -15.910156 7.8125 -14.734375 C 6.664062 -13.554688 6.09375 -12.097656 6.09375 -10.359375 C 6.09375 -8.617188 6.671875 -7.148438 7.828125 -5.953125 C 8.984375 -4.765625 10.359375 -4.171875 11.953125 -4.171875 C 13.554688 -4.171875 14.914062 -4.765625 16.03125 -5.953125 C 17.144531 -7.148438 17.703125 -8.617188 17.703125 -10.359375 C 17.703125 -12.097656 17.144531 -13.554688 16.03125 -14.734375 C 14.914062 -15.910156 13.5625 -16.5 11.96875 -16.5 Z M 11.96875 -16.5 "></path></g></g></g><g fill="#000000" fill-opacity="1"><g transform="translate(323.13494, 75.911139)"><g><path d="M 24.84375 0 L 20.1875 0 L 20.15625 -13.46875 L 15.1875 -2.078125 L 11.75 -2.078125 L 6.78125 -13.46875 L 6.78125 0 L 2.078125 0 L 2.078125 -20.75 L 7.84375 -20.75 L 13.46875 -8.40625 L 19.09375 -20.75 L 24.84375 -20.75 Z M 24.84375 0 "></path></g></g></g><g fill="#f7931e" fill-opacity="1"><g transform="translate(101.703777, 98.59727)"><g><path d="M 5.765625 0.1875 C 4.765625 0.1875 3.796875 0.046875 2.859375 -0.234375 C 1.929688 -0.523438 1.191406 -0.90625 0.640625 -1.375 L 1.484375 -3.234375 C 2.015625 -2.816406 2.664062 -2.472656 3.4375 -2.203125 C 4.207031 -1.941406 4.984375 -1.8125 5.765625 -1.8125 C 6.722656 -1.8125 7.4375 -1.960938 7.90625 -2.265625 C 8.382812 -2.578125 8.625 -2.988281 8.625 -3.5 C 8.625 -3.875 8.488281 -4.179688 8.21875 -4.421875 C 7.957031 -4.660156 7.625 -4.847656 7.21875 -4.984375 C 6.8125 -5.117188 6.253906 -5.269531 5.546875 -5.4375 C 4.566406 -5.675781 3.769531 -5.910156 3.15625 -6.140625 C 2.539062 -6.378906 2.015625 -6.75 1.578125 -7.25 C 1.140625 -7.75 0.921875 -8.425781 0.921875 -9.28125 C 0.921875 -9.988281 1.113281 -10.632812 1.5 -11.21875 C 1.894531 -11.8125 2.484375 -12.28125 3.265625 -12.625 C 4.046875 -12.96875 5.003906 -13.140625 6.140625 -13.140625 C 6.929688 -13.140625 7.707031 -13.039062 8.46875 -12.84375 C 9.238281 -12.644531 9.90625 -12.363281 10.46875 -12 L 9.703125 -10.125 C 9.128906 -10.457031 8.535156 -10.707031 7.921875 -10.875 C 7.304688 -11.050781 6.707031 -11.140625 6.125 -11.140625 C 5.175781 -11.140625 4.46875 -10.976562 4 -10.65625 C 3.539062 -10.34375 3.3125 -9.921875 3.3125 -9.390625 C 3.3125 -9.015625 3.441406 -8.707031 3.703125 -8.46875 C 3.972656 -8.238281 4.3125 -8.054688 4.71875 -7.921875 C 5.125 -7.785156 5.679688 -7.632812 6.390625 -7.46875 C 7.347656 -7.238281 8.132812 -7.003906 8.75 -6.765625 C 9.375 -6.523438 9.90625 -6.15625 10.34375 -5.65625 C 10.78125 -5.164062 11 -4.503906 11 -3.671875 C 11 -2.953125 10.800781 -2.300781 10.40625 -1.71875 C 10.019531 -1.144531 9.429688 -0.679688 8.640625 -0.328125 C 7.859375 0.015625 6.898438 0.1875 5.765625 0.1875 Z M 5.765625 0.1875 "></path></g></g></g><g fill="#f7931e" fill-opacity="1"><g transform="translate(117.271701, 98.59727)"><g><path d="M 1.734375 -12.953125 L 4.140625 -12.953125 L 4.140625 0 L 1.734375 0 Z M 1.734375 -12.953125 "></path></g></g></g><g fill="#f7931e" fill-opacity="1"><g transform="translate(127.10201, 98.59727)"><g><path d="M 13.640625 0 L 13.625 -8.59375 L 9.375 -1.484375 L 8.296875 -1.484375 L 4.03125 -8.484375 L 4.03125 0 L 1.734375 0 L 1.734375 -12.953125 L 3.71875 -12.953125 L 8.875 -4.375 L 13.921875 -12.953125 L 15.90625 -12.953125 L 15.921875 0 Z M 13.640625 0 "></path></g></g></g><g fill="#f7931e" fill-opacity="1"><g transform="translate(148.703669, 98.59727)"><g><path d="M 7.078125 -12.953125 C 8.203125 -12.953125 9.175781 -12.765625 10 -12.390625 C 10.832031 -12.023438 11.472656 -11.5 11.921875 -10.8125 C 12.367188 -10.125 12.59375 -9.300781 12.59375 -8.34375 C 12.59375 -7.40625 12.367188 -6.585938 11.921875 -5.890625 C 11.472656 -5.191406 10.832031 -4.65625 10 -4.28125 C 9.175781 -3.914062 8.203125 -3.734375 7.078125 -3.734375 L 4.140625 -3.734375 L 4.140625 0 L 1.734375 0 L 1.734375 -12.953125 Z M 6.96875 -5.78125 C 8.007812 -5.78125 8.800781 -6 9.34375 -6.4375 C 9.894531 -6.882812 10.171875 -7.519531 10.171875 -8.34375 C 10.171875 -9.175781 9.894531 -9.8125 9.34375 -10.25 C 8.800781 -10.695312 8.007812 -10.921875 6.96875 -10.921875 L 4.140625 -10.921875 L 4.140625 -5.78125 Z M 6.96875 -5.78125 "></path></g></g></g><g fill="#f7931e" fill-opacity="1"><g transform="translate(166.066905, 98.59727)"><g><path d="M 1.734375 -12.953125 L 4.140625 -12.953125 L 4.140625 -2.03125 L 10.921875 -2.03125 L 10.921875 0 L 1.734375 0 Z M 1.734375 -12.953125 "></path></g></g></g><g fill="#f7931e" fill-opacity="1"><g transform="translate(181.079567, 98.59727)"><g><path d="M 11.46875 -2.015625 L 11.46875 0 L 1.734375 0 L 1.734375 -12.953125 L 11.203125 -12.953125 L 11.203125 -10.9375 L 4.140625 -10.9375 L 4.140625 -7.578125 L 10.40625 -7.578125 L 10.40625 -5.59375 L 4.140625 -5.59375 L 4.140625 -2.015625 Z M 11.46875 -2.015625 "></path></g></g></g><g fill="#f7931e" fill-opacity="1"><g transform="translate(197.406325, 98.59727)"><g></g></g></g><g fill="#f7931e" fill-opacity="1"><g transform="translate(206.440763, 98.59727)"><g><path d="M 10.59375 -6.625 L 12.875 -6.625 L 12.875 -1.46875 C 12.207031 -0.9375 11.425781 -0.523438 10.53125 -0.234375 C 9.644531 0.046875 8.734375 0.1875 7.796875 0.1875 C 6.472656 0.1875 5.28125 -0.0976562 4.21875 -0.671875 C 3.15625 -1.242188 2.320312 -2.035156 1.71875 -3.046875 C 1.113281 -4.066406 0.8125 -5.210938 0.8125 -6.484375 C 0.8125 -7.753906 1.113281 -8.894531 1.71875 -9.90625 C 2.320312 -10.914062 3.15625 -11.707031 4.21875 -12.28125 C 5.289062 -12.851562 6.492188 -13.140625 7.828125 -13.140625 C 8.921875 -13.140625 9.910156 -12.960938 10.796875 -12.609375 C 11.679688 -12.253906 12.425781 -11.726562 13.03125 -11.03125 L 11.515625 -9.546875 C 10.523438 -10.535156 9.332031 -11.03125 7.9375 -11.03125 C 7.03125 -11.03125 6.21875 -10.835938 5.5 -10.453125 C 4.789062 -10.078125 4.234375 -9.539062 3.828125 -8.84375 C 3.429688 -8.15625 3.234375 -7.367188 3.234375 -6.484375 C 3.234375 -5.617188 3.429688 -4.835938 3.828125 -4.140625 C 4.234375 -3.453125 4.789062 -2.910156 5.5 -2.515625 C 6.21875 -2.117188 7.023438 -1.921875 7.921875 -1.921875 C 8.929688 -1.921875 9.820312 -2.144531 10.59375 -2.59375 Z M 10.59375 -6.625 "></path></g></g></g><g fill="#f7931e" fill-opacity="1"><g transform="translate(224.655382, 98.59727)"><g><path d="M 7.3125 0.1875 C 5.519531 0.1875 4.125 -0.3125 3.125 -1.3125 C 2.125 -2.320312 1.625 -3.765625 1.625 -5.640625 L 1.625 -12.953125 L 4.03125 -12.953125 L 4.03125 -5.734375 C 4.03125 -3.191406 5.128906 -1.921875 7.328125 -1.921875 C 9.515625 -1.921875 10.609375 -3.191406 10.609375 -5.734375 L 10.609375 -12.953125 L 12.984375 -12.953125 L 12.984375 -5.640625 C 12.984375 -3.765625 12.484375 -2.320312 11.484375 -1.3125 C 10.492188 -0.3125 9.101562 0.1875 7.3125 0.1875 Z M 7.3125 0.1875 "></path></g></g></g><g fill="#f7931e" fill-opacity="1"><g transform="translate(243.184655, 98.59727)"><g><path d="M 1.734375 -12.953125 L 4.140625 -12.953125 L 4.140625 0 L 1.734375 0 Z M 1.734375 -12.953125 "></path></g></g></g><g fill="#f7931e" fill-opacity="1"><g transform="translate(253.014964, 98.59727)"><g><path d="M 1.734375 -12.953125 L 7.40625 -12.953125 C 8.789062 -12.953125 10.019531 -12.679688 11.09375 -12.140625 C 12.164062 -11.609375 13 -10.851562 13.59375 -9.875 C 14.1875 -8.894531 14.484375 -7.765625 14.484375 -6.484375 C 14.484375 -5.203125 14.1875 -4.066406 13.59375 -3.078125 C 13 -2.097656 12.164062 -1.335938 11.09375 -0.796875 C 10.019531 -0.265625 8.789062 0 7.40625 0 L 1.734375 0 Z M 7.296875 -2.03125 C 8.242188 -2.03125 9.078125 -2.210938 9.796875 -2.578125 C 10.523438 -2.941406 11.082031 -3.457031 11.46875 -4.125 C 11.851562 -4.800781 12.046875 -5.585938 12.046875 -6.484375 C 12.046875 -7.367188 11.851562 -8.144531 11.46875 -8.8125 C 11.082031 -9.488281 10.523438 -10.007812 9.796875 -10.375 C 9.078125 -10.738281 8.242188 -10.921875 7.296875 -10.921875 L 4.140625 -10.921875 L 4.140625 -2.03125 Z M 7.296875 -2.03125 "></path></g></g></g><g fill="#f7931e" fill-opacity="1"><g transform="translate(272.22904, 98.59727)"><g><path d="M 11.46875 -2.015625 L 11.46875 0 L 1.734375 0 L 1.734375 -12.953125 L 11.203125 -12.953125 L 11.203125 -10.9375 L 4.140625 -10.9375 L 4.140625 -7.578125 L 10.40625 -7.578125 L 10.40625 -5.59375 L 4.140625 -5.59375 L 4.140625 -2.015625 Z M 11.46875 -2.015625 "></path></g></g></g><g fill="#f7931e" fill-opacity="1"><g transform="translate(288.555798, 98.59727)"><g><path d="M 5.765625 0.1875 C 4.765625 0.1875 3.796875 0.046875 2.859375 -0.234375 C 1.929688 -0.523438 1.191406 -0.90625 0.640625 -1.375 L 1.484375 -3.234375 C 2.015625 -2.816406 2.664062 -2.472656 3.4375 -2.203125 C 4.207031 -1.941406 4.984375 -1.8125 5.765625 -1.8125 C 6.722656 -1.8125 7.4375 -1.960938 7.90625 -2.265625 C 8.382812 -2.578125 8.625 -2.988281 8.625 -3.5 C 8.625 -3.875 8.488281 -4.179688 8.21875 -4.421875 C 7.957031 -4.660156 7.625 -4.847656 7.21875 -4.984375 C 6.8125 -5.117188 6.253906 -5.269531 5.546875 -5.4375 C 4.566406 -5.675781 3.769531 -5.910156 3.15625 -6.140625 C 2.539062 -6.378906 2.015625 -6.75 1.578125 -7.25 C 1.140625 -7.75 0.921875 -8.425781 0.921875 -9.28125 C 0.921875 -9.988281 1.113281 -10.632812 1.5 -11.21875 C 1.894531 -11.8125 2.484375 -12.28125 3.265625 -12.625 C 4.046875 -12.96875 5.003906 -13.140625 6.140625 -13.140625 C 6.929688 -13.140625 7.707031 -13.039062 8.46875 -12.84375 C 9.238281 -12.644531 9.90625 -12.363281 10.46875 -12 L 9.703125 -10.125 C 9.128906 -10.457031 8.535156 -10.707031 7.921875 -10.875 C 7.304688 -11.050781 6.707031 -11.140625 6.125 -11.140625 C 5.175781 -11.140625 4.46875 -10.976562 4 -10.65625 C 3.539062 -10.34375 3.3125 -9.921875 3.3125 -9.390625 C 3.3125 -9.015625 3.441406 -8.707031 3.703125 -8.46875 C 3.972656 -8.238281 4.3125 -8.054688 4.71875 -7.921875 C 5.125 -7.785156 5.679688 -7.632812 6.390625 -7.46875 C 7.347656 -7.238281 8.132812 -7.003906 8.75 -6.765625 C 9.375 -6.523438 9.90625 -6.15625 10.34375 -5.65625 C 10.78125 -5.164062 11 -4.503906 11 -3.671875 C 11 -2.953125 10.800781 -2.300781 10.40625 -1.71875 C 10.019531 -1.144531 9.429688 -0.679688 8.640625 -0.328125 C 7.859375 0.015625 6.898438 0.1875 5.765625 0.1875 Z M 5.765625 0.1875 "></path></g></g></g></svg> 